<svg width="20" height="12" viewBox="0 0 20 12" fill="none" xmlns="http://www.w3.org/2000/svg">
<path d="M19.1023 9.62505L10.7023 1.20005C10.6023 1.10005 10.494 1.02938 10.3773 0.988049C10.2607 0.946049 10.1357 0.925049 10.0023 0.925049C9.86901 0.925049 9.74401 0.946049 9.62734 0.988049C9.51068 1.02938 9.40234 1.10005 9.30234 1.20005L0.877344 9.62505C0.64401 9.85838 0.527344 10.15 0.527344 10.5C0.527344 10.85 0.652344 11.15 0.902344 11.4C1.15234 11.65 1.44401 11.775 1.77734 11.775C2.11068 11.775 2.40234 11.65 2.65234 11.4L10.0023 4.05005L17.3523 11.4C17.5857 11.6334 17.873 11.75 18.2143 11.75C18.5563 11.75 18.8523 11.625 19.1023 11.375C19.3523 11.125 19.4773 10.8334 19.4773 10.5C19.4773 10.1667 19.3523 9.87505 19.1023 9.62505Z" fill="white"/>
</svg>
