<?xml version="1.0" encoding="utf-8"?><svg viewBox="0 0 512 512" xmlns="http://www.w3.org/2000/svg" xmlns:xlink="http://www.w3.org/1999/xlink"><style>:root>svg{display:none}:root>svg:target{display:block}</style><svg viewBox="0 0 10 18" id="facebook" xmlns="http://www.w3.org/2000/svg"><path d="m8.97 10.1.499-3.185H6.356V4.848c0-.871.435-1.72 1.829-1.72H9.6V.414S8.316.2 7.088.2C4.525.2 2.85 1.726 2.85 4.487v2.428H0V10.1h2.85v7.7h3.506v-7.7h2.615Z"/></svg><svg data-name="Layer 1" viewBox="0 0 24 24" id="filter-icon" xmlns="http://www.w3.org/2000/svg"><path d="M19.239 0H4.76A3.765 3.765 0 0 0 1 3.761c0 .922.337 1.81.95 2.498L9 14.191v6.31c0 .176.092.339.243.429l5 3a.493.493 0 0 0 .503.007.502.502 0 0 0 .254-.436v-9.31l7.051-7.932A3.756 3.756 0 0 0 23 3.761 3.766 3.766 0 0 0 19.239 0Zm2.063 5.595-7.177 8.073a.503.503 0 0 0-.126.332v8.617l-4-2.4V14a.503.503 0 0 0-.126-.332L2.697 5.595A2.764 2.764 0 0 1 4.76 1h14.479A2.764 2.764 0 0 1 22 3.761c0 .677-.247 1.328-.697 1.834Z"/></svg><svg xml:space="preserve" viewBox="0 0 512 512" id="icon-grid" xmlns="http://www.w3.org/2000/svg"><path d="M42.667 373.333H96c23.564 0 42.667 19.102 42.667 42.667v53.333C138.667 492.898 119.564 512 96 512H42.667C19.103 512 0 492.898 0 469.333V416c0-23.564 19.103-42.667 42.667-42.667zm450.517 7.296a42.405 42.405 0 0 0-23.851-7.296H416c-23.564 0-42.667 19.102-42.667 42.667v53.333C373.333 492.898 392.436 512 416 512h53.333C492.898 512 512 492.898 512 469.333V416a42.666 42.666 0 0 0-18.816-35.371zM42.667 186.667H96c23.564 0 42.667 19.103 42.667 42.667v53.333c0 23.564-19.103 42.667-42.667 42.667H42.667C19.103 325.333 0 306.231 0 282.667v-53.333c0-23.565 19.103-42.667 42.667-42.667zm450.517 7.296a42.405 42.405 0 0 0-23.851-7.296H416c-23.564 0-42.667 19.103-42.667 42.667v53.333c0 23.564 19.103 42.667 42.667 42.667h53.333c23.564 0 42.667-19.103 42.667-42.667v-53.333a42.664 42.664 0 0 0-18.816-35.371zM42.667 0H96c23.564 0 42.667 19.103 42.667 42.667V96c0 23.564-19.103 42.667-42.667 42.667H42.667C19.103 138.667 0 119.564 0 96V42.667C0 19.103 19.103 0 42.667 0zm263.85 380.629a42.405 42.405 0 0 0-23.851-7.296h-53.333c-23.564 0-42.667 19.102-42.667 42.667v53.333c0 23.564 19.103 42.667 42.667 42.667h53.333c23.564 0 42.667-19.102 42.667-42.667V416a42.666 42.666 0 0 0-18.816-35.371zm0-186.666a42.405 42.405 0 0 0-23.851-7.296h-53.333c-23.564 0-42.667 19.103-42.667 42.667v53.333c0 23.564 19.103 42.667 42.667 42.667h53.333c23.564 0 42.667-19.103 42.667-42.667v-53.333a42.664 42.664 0 0 0-18.816-35.371zm0-186.667A42.405 42.405 0 0 0 282.666 0h-53.333c-23.564 0-42.667 19.103-42.667 42.667V96c0 23.564 19.103 42.667 42.667 42.667h53.333c23.564 0 42.667-19.103 42.667-42.667V42.667a42.665 42.665 0 0 0-18.816-35.371zm198.187 11.52A42.665 42.665 0 0 0 469.333 0H416c-23.564 0-42.667 19.103-42.667 42.667V96c0 23.564 19.103 42.667 42.667 42.667h53.333C492.898 138.667 512 119.564 512 96V42.667a42.405 42.405 0 0 0-7.296-23.851z"/></svg><svg viewBox="0 0 24 24" id="icon-list" xmlns="http://www.w3.org/2000/svg"><path d="M7 6h16a1 1 0 0 0 0-2H7a1 1 0 0 0 0 2Zm16 5H7a1 1 0 0 0 0 2h16a1 1 0 0 0 0-2Zm0 7H7a1 1 0 0 0 0 2h16a1 1 0 0 0 0-2Z"/><circle cx="2" cy="5" r="2"/><circle cx="2" cy="12" r="2"/><circle cx="2" cy="19" r="2"/></svg><svg data-name="Layer 1" viewBox="0 0 24 24" id="icon-up" xmlns="http://www.w3.org/2000/svg"><path d="m17.635 14.428-5.281-5.281a.512.512 0 0 0-.707 0l-5.281 5.281-.707-.707L10.94 8.44c.566-.566 1.555-.566 2.121 0l5.281 5.281-.707.707Z"/></svg><svg viewBox="0 0 18 18" id="instagram" xmlns="http://www.w3.org/2000/svg"><path d="M8.802 4.488A4.505 4.505 0 0 0 4.291 9a4.505 4.505 0 0 0 4.511 4.513A4.505 4.505 0 0 0 13.313 9a4.505 4.505 0 0 0-4.511-4.512Zm0 7.446A2.939 2.939 0 0 1 5.869 9a2.936 2.936 0 0 1 2.933-2.933A2.936 2.936 0 0 1 11.735 9a2.939 2.939 0 0 1-2.933 2.934Zm5.748-7.63a1.05 1.05 0 0 1-1.052 1.052 1.052 1.052 0 1 1 1.052-1.052Zm2.988 1.067c-.067-1.41-.389-2.658-1.421-3.687C15.088.654 13.839.333 12.43.262 10.977.18 6.623.18 5.17.262 3.764.329 2.516.651 1.483 1.68.451 2.709.133 3.958.062 5.367c-.083 1.454-.083 5.809 0 7.262.067 1.41.389 2.659 1.421 3.688 1.033 1.029 2.277 1.35 3.687 1.421 1.453.083 5.807.083 7.26 0 1.41-.066 2.658-.389 3.687-1.421 1.028-1.03 1.35-2.278 1.421-3.688.083-1.453.083-5.804 0-7.258Zm-1.877 8.817a2.97 2.97 0 0 1-1.672 1.673c-1.159.46-3.907.354-5.187.354-1.28 0-4.032.102-5.187-.354a2.97 2.97 0 0 1-1.672-1.673C1.483 13.03 1.589 10.28 1.589 9c0-1.28-.102-4.033.354-5.188A2.97 2.97 0 0 1 3.615 2.14c1.159-.46 3.907-.353 5.187-.353 1.28 0 4.032-.102 5.187.353.77.307 1.362.9 1.672 1.673.46 1.159.354 3.908.354 5.188 0 1.28.106 4.034-.354 5.188Z"/></svg><svg viewBox="0 0 18 16" id="twitter" xmlns="http://www.w3.org/2000/svg"><path d="M15.79 4.09a7.8 7.8 0 0 1 .012.511c0 5.202-3.63 11.196-10.263 11.196A9.586 9.586 0 0 1 0 14.03c.29.037.57.05.871.05 1.686 0 3.239-.622 4.478-1.682-1.586-.037-2.914-1.17-3.372-2.729.223.037.446.061.68.061.325 0 .649-.049.95-.134C1.954 9.23.715 7.646.715 5.734v-.049c.48.293 1.038.475 1.63.5C1.374 5.478.737 4.272.737 2.908c0-.731.179-1.401.491-1.986C3.004 3.31 5.673 4.869 8.666 5.04a4.83 4.83 0 0 1-.09-.902c0-2.168 1.609-3.935 3.608-3.935 1.038 0 1.976.475 2.635 1.243.815-.17 1.597-.5 2.29-.95a3.882 3.882 0 0 1-1.586 2.168 6.762 6.762 0 0 0 2.077-.61 8.175 8.175 0 0 1-1.81 2.035Z"/></svg><svg viewBox="0 0 25 19" id="you-tube" xmlns="http://www.w3.org/2000/svg"><path d="M24.478 3.017c-.288-1.109-1.135-1.982-2.21-2.278C20.317.2 12.5.2 12.5.2S4.682.2 2.733.74C1.657 1.035.81 1.908.523 3.017 0 5.026 0 9.218 0 9.218s0 4.193.522 6.202a3.132 3.132 0 0 0 2.21 2.242c1.95.538 9.768.538 9.768.538s7.818 0 9.767-.538a3.132 3.132 0 0 0 2.21-2.242C25 13.41 25 9.218 25 9.218s0-4.192-.522-6.201ZM9.943 13.025V5.412l6.534 3.806-6.534 3.807Z"/></svg></svg>