<svg width="2500" height="1259" viewBox="0 0 2500 1259" fill="none" xmlns="http://www.w3.org/2000/svg">
<path fill-rule="evenodd" clip-rule="evenodd" d="M0 0H2500V1259H0V0Z" fill="none"/>
<path fill-rule="evenodd" clip-rule="evenodd" d="M37 768.483C37 695.346 96.2848 636.061 169.408 636.061C242.532 636.061 301.817 695.346 301.817 768.483C301.817 841.619 242.532 900.891 169.408 900.891C96.2848 900.891 37 841.606 37 768.483ZM1083.65 67.7652C1011.59 67.7652 953.184 126.181 953.184 198.241V470.386C953.184 542.446 1011.59 600.861 1083.65 600.861H1559.25C1567.32 600.858 1575.06 597.649 1580.76 591.941C1586.47 586.233 1589.68 578.492 1589.68 570.421V477.26C1589.68 469.189 1586.47 461.448 1580.76 455.74C1575.06 450.032 1567.32 446.823 1559.25 446.82L1187.25 447.39C1179.89 447.39 1172.83 444.465 1167.62 439.259C1162.41 434.053 1159.49 426.991 1159.49 419.628C1159.49 412.266 1162.41 405.204 1167.62 399.998C1172.83 394.792 1179.89 391.867 1187.25 391.867L1558.5 392.45C1562.49 392.452 1566.45 391.666 1570.15 390.137C1573.84 388.608 1577.2 386.366 1580.03 383.539C1582.86 380.712 1585.1 377.356 1586.63 373.662C1588.16 369.968 1588.95 366.009 1588.95 362.01V306.616C1588.95 302.618 1588.16 298.659 1586.63 294.965C1585.1 291.271 1582.86 287.914 1580.03 285.087C1577.2 282.261 1573.84 280.019 1570.15 278.49C1566.45 276.961 1562.49 276.175 1558.5 276.176L1187.25 276.76C1180.07 276.491 1173.27 273.449 1168.28 268.272C1163.29 263.095 1160.51 256.186 1160.51 248.998C1160.51 241.81 1163.29 234.902 1168.28 229.725C1173.27 224.548 1180.07 221.505 1187.25 221.236L1559.25 221.82C1567.32 221.817 1575.06 218.608 1580.76 212.9C1586.47 207.192 1589.68 199.451 1589.68 191.38V98.2182C1589.68 94.2208 1588.89 90.2621 1587.36 86.5683C1585.84 82.8745 1583.59 79.5179 1580.77 76.6901C1577.94 73.8622 1574.59 71.6187 1570.9 70.0873C1567.2 68.556 1563.25 67.7669 1559.25 67.7652H1083.65ZM1201.27 825.861C1186.85 825.861 1175.17 837.534 1175.17 851.956V1024.79C1175.17 1039.17 1186.85 1050.89 1201.27 1050.89H1337.83C1344.75 1050.88 1351.39 1048.13 1356.29 1043.24C1361.18 1038.35 1363.94 1031.71 1363.95 1024.79V851.956C1363.95 848.528 1363.27 845.133 1361.96 841.966C1360.64 838.799 1358.72 835.922 1356.29 833.499C1353.87 831.075 1350.99 829.154 1347.82 827.843C1344.65 826.533 1341.26 825.859 1337.83 825.861L1479.61 671.819C1551.69 671.819 1610.1 730.235 1610.1 802.308V1074.44C1610.1 1146.49 1551.69 1204.9 1479.61 1204.9H1059.48C987.424 1204.9 929.009 1146.49 929.009 1074.44V802.308C929.009 730.235 987.424 671.819 1059.48 671.819H1479.6L1337.83 825.861H1201.27ZM747.211 1204.92C819.258 1204.92 877.674 1146.47 877.674 1074.43V802.295C877.674 730.222 819.258 671.806 747.211 671.806H533.366C513.73 671.806 489.567 682.389 478.997 695.969L228.317 978.359C213.207 994.974 216.229 1020.64 240.405 1020.64H438.22C453.329 1019.15 468.426 1014.61 478.997 1002.54L620.951 842.462C639.069 821.309 663.232 833.396 663.232 848.921V1024.78C663.225 1031.7 660.474 1038.33 655.581 1043.22C650.689 1048.12 644.056 1050.87 637.137 1050.87H193.999C176.97 1050.87 158.851 1056.9 149.772 1065.97L57.6608 1170.16C45.573 1182.24 50.1124 1204.89 69.7487 1204.89L747.211 1204.92ZM1776.8 600.848C1704.73 600.848 1646.31 542.433 1646.31 470.373V198.228C1646.31 126.168 1704.73 67.7523 1776.8 67.7523H1990.65C2010.28 67.7523 2034.45 78.3226 2045.01 91.9149L2454.24 558.541C2469.36 575.155 2466.33 600.823 2442.15 600.823H2244.34C2229.24 599.318 2214.14 594.792 2203.55 582.704L1903.04 238.395C1884.93 217.255 1860.76 229.33 1860.76 244.854V420.711C1860.76 435.121 1872.43 446.807 1886.85 446.807H2017.38C2034.42 446.807 2052.54 452.838 2061.61 461.903L2153.72 566.102C2165.81 578.19 2161.27 600.836 2141.63 600.836L1776.8 600.848ZM756.264 600.836C828.311 600.836 886.74 542.42 886.74 470.36L887.479 306.59C887.479 298.517 884.272 290.775 878.564 285.066C872.855 279.357 865.113 276.15 857.039 276.15H485.041C481.471 276.15 477.937 275.447 474.64 274.082C471.343 272.716 468.346 270.714 465.823 268.19C463.299 265.666 461.297 262.67 459.931 259.373C458.565 256.076 457.862 252.541 457.862 248.972C457.862 245.403 458.565 241.869 459.931 238.572C461.297 235.274 463.299 232.278 465.823 229.754C468.346 227.231 471.343 225.229 474.64 223.863C477.937 222.497 481.471 221.794 485.041 221.794L856.287 221.042C864.36 221.042 872.103 217.835 877.811 212.126C883.52 206.418 886.727 198.675 886.727 190.602V97.44C886.727 89.3668 883.52 81.6243 877.811 75.9157C872.103 70.2071 864.36 67 856.287 67L376.925 67.7523C304.865 67.7523 246.449 126.168 246.449 198.228L245.709 362.01C245.709 370.083 248.917 377.826 254.625 383.535C260.334 389.243 268.076 392.45 276.15 392.45L613.415 392.437C620.625 392.437 627.54 395.301 632.638 400.4C637.736 405.498 640.6 412.412 640.6 419.622C640.6 426.832 637.736 433.746 632.638 438.844C627.54 443.943 620.625 446.807 613.415 446.807H193.065C184.992 446.807 177.249 450.014 171.541 455.722C165.832 461.431 162.625 469.173 162.625 477.247V570.408C162.625 578.482 165.832 586.224 171.541 591.933C177.249 597.641 184.992 600.848 193.065 600.848L756.264 600.836ZM2390.53 688.511C2407.07 688.511 2420.12 701.585 2420.12 718.886C2420.12 736.486 2407.07 749.43 2390.53 749.43C2373.81 749.43 2360.77 736.486 2360.77 718.886C2360.77 701.585 2373.81 688.511 2390.53 688.511V682.428C2370.44 682.428 2353.43 697.901 2353.43 718.886C2353.43 740.066 2370.44 755.539 2390.53 755.539C2410.47 755.539 2427.47 740.066 2427.47 718.886C2427.47 697.914 2410.47 682.428 2390.53 682.428V688.511Z" fill="#fff"/>
<path fill-rule="evenodd" clip-rule="evenodd" d="M2382.56 703.339H2391.27C2395.71 703.339 2400.44 704.325 2400.44 709.552C2400.44 716.01 2395.61 716.413 2390.21 716.413H2382.56V721.808H2389.9L2401.01 740.095H2408.19L2396.18 721.523C2402.39 720.757 2407.12 717.476 2407.12 709.915C2407.12 701.601 2402.18 697.931 2392.23 697.931H2376.18V740.082H2382.56V703.339ZM1944 825.903C1929.59 825.903 1917.9 837.576 1917.9 851.998V1024.83C1917.9 1039.22 1929.58 1050.93 1944 1050.93H2080.58C2087.5 1050.93 2094.14 1048.17 2099.03 1043.28C2103.93 1038.39 2106.68 1031.75 2106.68 1024.83V851.998C2106.68 837.589 2095.01 825.903 2080.58 825.903L2222.37 671.861C2294.42 671.861 2352.83 730.277 2352.83 802.35V1074.48C2352.83 1146.53 2294.42 1204.94 2222.37 1204.94H1802.24C1730.17 1204.94 1671.75 1146.53 1671.75 1074.48V802.35C1671.75 730.277 1730.17 671.861 1802.24 671.861H2222.37L2080.58 825.903H1944Z" fill="#fff"/>
</svg>
